<?xml version="1.0" encoding="utf-8"?>
<!-- Generator: Adobe Illustrator 23.0.2, SVG Export Plug-In . SVG Version: 6.00 Build 0)  -->
<svg version="1.1" id="Layer_1" xmlns="http://www.w3.org/2000/svg" xmlns:xlink="http://www.w3.org/1999/xlink" x="0px" y="0px"
	 viewBox="0 0 205.17 45.02" style="enable-background:new 0 0 205.17 45.02;" xml:space="preserve">
<style type="text/css">
	.st0{clip-path:url(#SVGID_2_);fill:#FFFFFF;}
	.st1{fill:#F3BC00;}
	.st2{clip-path:url(#SVGID_4_);fill:none;stroke:#FFFFFF;stroke-width:0.708;stroke-linejoin:round;stroke-miterlimit:10;}
	.st3{clip-path:url(#SVGID_4_);}
	.st4{fill:#FFFFFF;}
	.st5{fill:#F3BC04;}
</style>
<g>
	<defs>
		<rect id="SVGID_1_" y="0" width="205.17" height="45.01"/>
	</defs>
	<clipPath id="SVGID_2_">
		<use xlink:href="#SVGID_1_"  style="overflow:visible;"/>
	</clipPath>
	<path class="st0" d="M191.23,17.09H58.37L58.3,45.02h133.12c0.28,0,13.75-12.94,13.75-12.94S191.41,17.09,191.23,17.09"/>
</g>
<polygon class="st1" points="0.35,0.71 0.35,31.42 58.3,31.26 58.22,44.66 68.6,31.26 68.6,0.35 "/>
<g>
	<defs>
		<rect id="SVGID_3_" y="0" width="205.17" height="45.01"/>
	</defs>
	<clipPath id="SVGID_4_">
		<use xlink:href="#SVGID_3_"  style="overflow:visible;"/>
	</clipPath>
	<polygon class="st2" points="0.35,0.71 0.35,31.42 58.3,31.26 58.22,44.66 68.6,31.26 68.6,0.35 	"/>
	<g class="st3">
		<path class="st4" d="M25.09,9.71h-5.96v16.17h-4.79V9.71H8.48v-3.7h16.61V9.71z"/>
		<path class="st4" d="M27.11,25.88V6.01h7.14c2.56,0,4.5,0.47,5.83,1.41s2,2.3,2,4.08c0,1.03-0.24,1.91-0.71,2.63
			c-0.47,0.73-1.17,1.26-2.09,1.61c1.04,0.27,1.83,0.78,2.39,1.53c0.55,0.75,0.83,1.66,0.83,2.73c0,1.95-0.62,3.41-1.85,4.39
			c-1.23,0.98-3.06,1.48-5.48,1.49H27.11z M31.9,14.29h2.5c1.05-0.01,1.79-0.2,2.24-0.57s0.67-0.93,0.67-1.66
			c0-0.84-0.24-1.44-0.72-1.81c-0.48-0.37-1.26-0.55-2.33-0.55H31.9V14.29z M31.9,17.43v4.76h3.14c0.86,0,1.53-0.2,1.99-0.59
			c0.46-0.4,0.7-0.95,0.7-1.67c0-1.66-0.82-2.49-2.47-2.5H31.9z"/>
		<path class="st4" d="M57.46,17.44h-7.53v4.75h8.9v3.68H45.13V6.01h13.71v3.7h-8.92v4.19h7.53V17.44z"/>
	</g>
	<g class="st3">
		<path class="st5" d="M86.95,32.18l1.87-10.23h3.9l-3.46,16.31h-4.08l-2.18-9.3l-2.14,9.3h-4.07l-3.47-16.31h3.91l1.87,10.23
			l2.24-10.23h3.34L86.95,32.18z"/>
		<path class="st5" d="M98.44,38.26h-3.92V21.95h3.92V38.26z"/>
		<path class="st5" d="M107.68,21.95h3.92v11.19c0,1.04-0.24,1.96-0.72,2.78s-1.15,1.45-2.02,1.89c-0.86,0.45-1.82,0.67-2.88,0.67
			c-1.78,0-3.16-0.45-4.15-1.34c-0.99-0.9-1.48-2.17-1.48-3.81h3.94c0,0.75,0.13,1.29,0.38,1.62c0.26,0.34,0.69,0.5,1.29,0.5
			c0.54,0,0.96-0.2,1.26-0.61c0.29-0.41,0.44-0.98,0.44-1.71V21.95z"/>
		<path class="st5" d="M118.49,35.24h7.8v3.03h-12.71v-2.07l7.78-11.2h-7.82v-3.04h12.67v2.02L118.49,35.24z"/>
		<path class="st5" d="M138.19,31.34H132v3.9h7.31v3.03h-11.24V21.95h11.26v3.04H132v3.44h6.19V31.34z"/>
		<path class="st5" d="M146.97,32.49h-2.13v5.77h-3.93V21.95h6.42c1.93,0,3.45,0.43,4.54,1.29s1.64,2.07,1.64,3.64
			c0,1.13-0.23,2.07-0.69,2.82c-0.46,0.75-1.18,1.35-2.16,1.81l3.41,6.59v0.17h-4.21L146.97,32.49z M144.84,29.47h2.49
			c0.75,0,1.31-0.2,1.69-0.59c0.38-0.39,0.57-0.94,0.57-1.65c0-0.7-0.19-1.26-0.57-1.66s-0.94-0.6-1.68-0.6h-2.49V29.47z"/>
		<path class="st5" d="M158.04,34.6c0.6,0,1.09,0.18,1.49,0.53c0.4,0.36,0.59,0.81,0.59,1.36s-0.2,1.01-0.59,1.36
			c-0.4,0.36-0.89,0.53-1.49,0.53c-0.6,0-1.1-0.18-1.5-0.54c-0.39-0.36-0.59-0.81-0.59-1.36c0-0.54,0.2-1,0.59-1.36
			C156.94,34.78,157.43,34.6,158.04,34.6z"/>
		<path class="st5" d="M176.44,38.26h-3.91l-5.78-10.15v10.15h-3.93V21.95h3.93l5.77,10.15V21.95h3.92V38.26z"/>
		<path class="st5" d="M182.86,35.24h6.85v3.03h-10.78V21.95h3.93V35.24z"/>
	</g>
</g>
</svg>
