<?xml version="1.0" encoding="utf-8"?>
<!-- Generator: Adobe Illustrator 23.0.2, SVG Export Plug-In . SVG Version: 6.00 Build 0)  -->
<svg version="1.1" id="Layer_1" xmlns="http://www.w3.org/2000/svg" xmlns:xlink="http://www.w3.org/1999/xlink" x="0px" y="0px"
	 viewBox="0 0 724.3 116.35" style="enable-background:new 0 0 724.3 116.35;" xml:space="preserve">
<style type="text/css">
	.st0{clip-path:url(#SVGID_2_);fill:#F3BC00;}
</style>
<g>
	<defs>
		<rect id="SVGID_1_" y="0" width="724.3" height="116.35"/>
	</defs>
	<clipPath id="SVGID_2_">
		<use xlink:href="#SVGID_1_"  style="overflow:visible;"/>
	</clipPath>
	<path class="st0" d="M692.76,56.88c-0.63,0.02-2.1,0.78-4.43,2.3c-0.35,0.08-1.15,1.31-2.41,3.71c-0.34,0.56-0.95,2.46-1.84,5.67
		l1.15,4.56c0.01,0.21,0.87,1.37,2.59,3.48c0.57,0.75,1.81,1.59,3.71,2.51c0.01,0.42,1.93,0.96,5.77,1.63l4.88-0.64l4.21-2.4
		c0.28-0.01,1.15-1.35,2.61-4.02c0.35-0.01,0.58-1.92,0.69-5.75l-0.94-4.25c-0.01-0.35-0.88-1.92-2.62-4.73l-3.7-2.1
		c-0.01-0.28-1.89-0.51-5.65-0.7L692.76,56.88z M683.37,5.41c-2.49,0.62-3.9,1.17-4.23,1.67c-1.71,1.08-3.99,3.16-6.83,6.21
		c-0.2,0.28-1.52,3.3-3.95,9.06c-0.35,0.01-0.48,1.78-0.39,5.33l0.02,0.94c0.01,0.21,1.88,0.34,5.64,0.38
		c8.44,1.46,13.78,2.17,16,2.11c0.32-1.12,0.62-3.11,0.9-5.96l5.36-2.63l4.27,4.27l-3.13,4.24c-1.37,0.87-2.29,1.55-2.76,2.05
		c-1.91,1.37-3.57,3.08-4.98,5.13c-0.75,0.58-1.55,2.09-2.39,4.54c-0.42,0.01-0.82,2.24-1.19,6.7l0.07,3.02l-0.1,0.11
		c2.44,0.29,7.93,0.33,16.47,0.12c3.88-0.44,5.82-0.73,5.82-0.87l-0.05-2.19l-0.11-0.1l2.89-5.39c0-0.14,1.44-0.73,4.33-1.77
		c0.35-0.01,1.78-1.15,4.29-3.44c2.15-3.11,3.61-5.78,4.39-8.03c0.47-0.5,0.66-2.62,0.57-6.37c-0.51-3.6-1.02-6.3-1.55-8.09
		c-0.31-1.38-1.08-2.96-2.3-4.74c-0.09-0.62-1.58-2.11-4.49-4.48c-2.95-1.32-6.21-2.42-9.77-3.31c-7.58-0.02-12.79-0.21-15.65-0.56
		L683.37,5.41z M630.62,48.5l2.83-3.51c0-0.14,1.55-0.38,4.67-0.74l4.49,0.31l3.73,3.35l0.53,4.57l-0.51,4.6l-2.84,3.3
		c-0.41,0.29-2.03,0.95-4.85,1.99c-1.26-0.45-2.66-0.87-4.2-1.25c-0.28,0.01-1.52-1.11-3.73-3.35c-0.14,0-0.42-1.62-0.85-4.88
		L630.62,48.5z M628.67,24.15c-1.53,0.04-3.05,0.46-4.55,1.26c-1.38,0.31-2.96,1.15-4.73,2.51c-1.72,0.88-4.91,3.98-9.57,9.3
		l-1.55,4.62c-0.75,3.49-1.21,7.33-1.39,11.5l0.26,2.18c1.06,6.51,1.88,10.27,2.46,11.3c0.47,2.07,1.16,3.41,2.08,4.01
		c0.37,0.96,2.51,3.14,6.41,6.51c3.44,1.38,6.7,2.79,9.8,4.24c4.53,0.72,8.29,1.05,11.28,0.98c3.26-0.08,6.73-0.51,10.39-1.3
		c4.21-1.14,6.58-2.07,7.12-2.78c2.06-0.95,4.14-2.57,6.24-4.84c0.55-0.15,1.39-1.42,2.51-3.81c1.99-3.94,3.59-8.08,4.8-12.42
		c-0.3-3.88-0.62-7-0.96-9.36c-0.02-0.83-0.95-4.7-2.78-11.61c-0.01-0.28-1.05-1.61-3.12-3.99c-0.36-0.41-1.77-1.48-4.25-3.23
		c-4.02-2.54-6.94-4-8.76-4.37c-0.57-0.54-2.91-1.01-7.02-1.39l-6.98,0.27l-4.27,0L628.67,24.15z M583.71,25.57
		c-4.51,0.39-7.62,0.95-9.34,1.69c-0.42,0.01-1.76,0.67-4.02,1.97c-0.76,0.44-2.15,1.55-4.19,3.33c-2.99,2.64-4.66,4.25-4.99,4.81
		c-1.74,2.54-3.1,5.25-4.08,8.13l0.1,4.17c0.01,0.42-0.29,2.27-0.91,5.55c0.09,3.47,1.21,8.24,3.37,14.3l5.93,8.09
		c6.33,3.04,10.33,4.85,12.02,5.44c0.64,0.61,1.9,0.89,3.77,0.85l1.67-0.04l6.14-0.46l5.64,0.28c4.01-0.79,6.29-1.4,6.84-1.83
		c2.27-0.75,4.95-2.27,8.02-4.57c-1.88-2.94-3.89-5.71-6.04-8.29c-1.81-2.87-3.89-5.64-6.25-8.29c-0.28,0.01-1.1,0.44-2.47,1.31
		c-0.48,0.43-2.13,0.89-4.97,1.37l-4.6-0.72c-0.14,0-1.31-0.91-3.51-2.73c-0.21,0-0.88-1.68-2-5.06c-0.01-0.28,0.44-1.89,1.34-4.83
		l3.04-3.72c0-0.14,1.73-0.35,5.2-0.65l3.55,0.33c0.21-0.01,1.37,0.73,3.49,2.21l6.15-8.39c1.73-3.17,3.46-6.09,5.21-8.78
		l-0.01-0.21l-3.63-3.66l-4.61-1.14c-3.49-0.54-7.28-0.93-11.39-1.18L583.71,25.57z M526.5,28.94l0.11,0.1l0.33,4.99l-0.08,5.42
		l0.33,4.99l0.11,0.41l-0.81,5.23l0.66,5.51l-0.08,0.94l0.05,2.19l-0.05,2.19l0.76,5.3l-0.29,5.32l0.55,5.41l-0.5,5.12
		c4.95,0.64,8.74,0.93,11.38,0.87l1.88-0.05c4.72-0.12,8.19-0.48,10.4-1.09c-0.07-2.71,0.05-6.32,0.36-10.85l-0.02-0.83l-0.21-4.37
		l0.16-6.26c-0.11-4.58-0.26-7.88-0.45-9.89l0.15-6.78l-0.03-1.35c-0.58-6.86-0.9-11.27-0.95-13.21l-0.1,0
		c-3.34-0.19-6.44-0.47-9.3-0.81C537.58,27.53,532.8,28.03,526.5,28.94 M535.61,0.68c-1.38,0.31-3.24,1.26-5.56,2.85
		c-0.48,0.29-1.53,1.57-3.14,3.83c-0.28,0.01-0.52,1.72-0.71,5.13l0.42,4.26c0.01,0.56,0.84,1.89,2.49,4
		c0.01,0.35,1.31,1.19,3.92,2.51c0.01,0.21,1.85,0.58,5.55,1.11l4.57-0.74c0.14,0,1.2-0.79,3.17-2.37c0.88-0.72,1.83-1.99,2.83-3.82
		c0.48-0.01,0.79-1.82,0.91-5.44l-0.31-4.16c-0.01-0.56-0.74-1.72-2.17-3.49c-0.3-0.76-1.36-1.57-3.19-2.42
		c-0.85-0.67-2.99-1.32-6.41-1.93L535.61,0.68z M498.59,27.54l-5.01-0.29c-6.4,2.52-10.97,4.58-13.71,6.17l-2.61,4.03
		c-0.83,2.87-1.58,6.22-2.26,10.06l0.49,2.91c0.25,1.66,0.92,3.35,2,5.06c0.01,0.63,1.34,2.19,3.97,4.7l8.32,3.34
		c0.01,0.35,1.89,0.68,5.65,1.01c0.28-0.01,1.48,0.94,3.61,2.83l-2.85,2.57l-4.07-0.11c-0.49,0.01-1.99-0.58-4.52-1.77
		c-0.14,0-1.24-1.15-3.32-3.46l-0.1,0l-0.91,1.07c-1.14,1.9-4.61,6.09-10.43,12.55l3.63,3.35c0.28,0.27,2.01,1.13,5.17,2.58
		c3.98,0.67,7.61,1.34,10.89,2.03l5.61-0.76l5.11,0.08l5.18-1.27c2.96-0.91,5.48-2.01,7.53-3.31c0.89-0.3,2.01-1.47,3.35-3.52
		c0.82-0.78,1.31-1.84,1.49-3.16c0.52-1.61,0.83-4.4,0.94-8.36l-0.94-4.25c-0.01-0.49-0.75-2.14-2.21-4.95
		c0-0.14-1.32-1.39-3.95-3.76c-4.22-1.91-6.95-2.92-8.2-3.03c-4.06-1.08-7-2.16-8.84-3.22c0.2-0.35,1.36-1.28,3.48-2.79l3.67,0.95
		c0.76-0.02,2.91,0.97,6.43,2.97c0.21,0,0.31-0.08,0.31-0.22c2.49-3.33,6.06-7.86,10.72-13.6l0-0.1c-2.76-1.95-5.44-3.58-8.04-4.91
		c-3.01-0.97-6.54-1.65-10.58-2.04L498.59,27.54z M444.48,30.95l0.11,0.1l0.33,5l-0.08,5.42l0.33,4.99l0.11,0.41l-0.81,5.23
		l0.66,5.51l-0.08,0.94l0.05,2.19l-0.05,2.19l0.76,5.3l-0.29,5.32l0.55,5.41l-0.5,5.12c4.95,0.64,8.74,0.93,11.38,0.87l1.88-0.05
		c4.72-0.12,8.19-0.48,10.4-1.09c-0.07-2.71,0.05-6.32,0.36-10.85l-0.02-0.83l-0.21-4.37l0.16-6.26c-0.11-4.58-0.26-7.88-0.45-9.89
		l0.15-6.78l-0.03-1.35c-0.58-6.87-0.9-11.27-0.95-13.21l-0.1,0c-3.34-0.2-6.44-0.47-9.3-0.82
		C455.56,29.53,450.78,30.03,444.48,30.95 M453.59,2.69c-1.38,0.31-3.24,1.26-5.56,2.85c-0.48,0.29-1.53,1.57-3.14,3.83
		c-0.28,0.01-0.51,1.72-0.71,5.12l0.42,4.26c0.01,0.56,0.84,1.89,2.49,4c0.01,0.35,1.31,1.18,3.92,2.51
		c0.01,0.21,1.86,0.58,5.55,1.12l4.57-0.74c0.14,0,1.19-0.79,3.17-2.37c0.89-0.72,1.83-1.99,2.83-3.82
		c0.48-0.01,0.79-1.83,0.91-5.44l-0.31-4.16c-0.01-0.56-0.74-1.72-2.17-3.49c-0.3-0.76-1.36-1.56-3.19-2.42
		c-0.85-0.67-2.99-1.32-6.4-1.93L453.59,2.69z M432.96,30.08c-0.28,0.01-2.03,0.78-5.26,2.32c-0.21,0.01-1.04,1.76-2.48,5.27
		l-0.53-0.3l-0.46-6.03l-2.4-0.05c-6.75-0.25-11.37-0.35-13.87-0.29c-0.76,0.02-2.77,0.35-6.02,0.98l0.23,5l-0.39,5.53l0.34,5.41
		l-0.06,1.77c-0.24,7.37-0.33,11.99-0.29,13.87l0.46,5.83l-0.08,0.94l0.13,9.69l1.38,5.39c0,0.07,1.36,0.32,4.08,0.73
		c1.73-0.04,4.92-0.33,9.57-0.86l4.69,0.09c3.18-0.5,4.78-0.78,4.77-0.85l0.02-3.54l-0.02-0.73l0.08-0.84l-0.75-4.98l0.7-5.33
		c-0.08-3.13-0.4-6.49-0.98-10.09c-0.01-0.35,0.42-1.5,1.27-3.47c-0.01-0.48,1.16-2.18,3.52-5.09c0.27-0.15,2-0.5,5.19-1.07
		l4.71,0.82c0.21,0,0.37-0.49,0.49-1.47c0.66-1.54,1.24-6.11,1.75-13.7l-0.64-4.88c0-0.14-1.51-0.48-4.51-1.04L432.96,30.08z
		 M319.52,9.82c-3.35,0.08-6.23,0.54-8.66,1.36l-0.69,10.02l0.54,4.99l-0.05,6.57l0.07,2.71l-0.48,6.06
		c0.05,2.15,0.38,5.55,0.98,10.19l-0.28,10.01l0.98,10.09l-0.09,5c0.49,2.84,0.85,6.2,1.08,10.08c0.01,0.21,1.2,0.35,3.57,0.43
		l5.57,0.91l4.29-0.1c0.56-0.01,2.01-0.33,4.37-0.94c3.48-0.43,5.32-0.72,5.53-0.86l-0.29-7.71l-0.02-0.73l-0.02-0.63l-0.95-4.56
		l0.51-4.6l-0.17-2.71l-0.03-1.15l-0.13-0.93l0.31-0.01l0.88,2.06c0.81,1.79,1.86,3.57,3.15,5.34c0.92,0.74,1.87,2.73,2.86,5.98
		c0.08,0.48,2.14,3.6,6.17,9.33c2.86,0.62,6.52,0.88,10.96,0.77c7.15-0.17,12.35-0.58,15.61-1.22l-1.36-4.34l-3.79-5.64
		c-0.52-1.51-1.96-3.56-4.32-6.15c-1.46-2.74-3.08-5.2-4.87-7.38c-0.43-0.48-1.34-2.3-2.74-5.46l3.03-4.03
		c6.67-8.64,11.06-15.24,13.17-19.81l-0.11-0.1l-4.79,0.22l-5.65-0.8c-1.25,0.03-5.06,0.44-11.44,1.22l-2.71,0.07l-2.19-0.05
		l-2.71,4.24c-2.72,5.35-5.78,10.81-9.19,16.38l-0.1,0l-0.64-4.88l0.09-4.9l-0.43-4.68l0.51-4.81l-0.64-4.88l0.2-4.8l-0.85-4.77
		c0.54-3.42,0.78-6.59,0.71-9.5l0-0.1l0-0.1l-3.04-0.03c-1.05,0.03-3.22-0.34-6.52-1.09L319.52,9.82z M278.24,35.01l0.11,0.1l0.33,5
		l-0.08,5.42l0.33,5l0.11,0.41l-0.81,5.23l0.66,5.51l-0.08,0.94l0.05,2.19L278.81,67l0.75,5.3l-0.29,5.32l0.55,5.41l-0.5,5.12
		c4.95,0.64,8.74,0.93,11.38,0.87l1.88-0.05c4.72-0.11,8.19-0.48,10.4-1.09c-0.07-2.71,0.05-6.32,0.36-10.85l-0.02-0.83l-0.21-4.37
		l0.16-6.26c-0.11-4.58-0.26-7.88-0.45-9.89l0.15-6.78l-0.03-1.35c-0.58-6.86-0.9-11.27-0.95-13.21l-0.1,0
		c-3.34-0.19-6.44-0.47-9.3-0.82C289.32,33.59,284.54,34.09,278.24,35.01 M287.34,6.75c-1.38,0.31-3.24,1.26-5.56,2.85
		c-0.48,0.29-1.53,1.57-3.14,3.83c-0.28,0.01-0.51,1.72-0.71,5.12l0.42,4.26c0.01,0.56,0.84,1.89,2.49,4
		c0.01,0.35,1.31,1.18,3.92,2.51c0.01,0.21,1.86,0.58,5.55,1.11l4.57-0.74c0.14,0,1.2-0.79,3.17-2.37c0.89-0.71,1.83-1.99,2.83-3.82
		c0.48-0.01,0.79-1.83,0.91-5.44l-0.31-4.16c-0.01-0.56-0.74-1.72-2.17-3.49c-0.3-0.76-1.36-1.56-3.19-2.42
		c-0.85-0.67-2.99-1.32-6.41-1.93L287.34,6.75z M208.55,58.19c0-0.14,1.02-1.07,3.06-2.78c-0.01-0.48,1.75-0.91,5.28-1.27l4.51,0.93
		l2.98,2.64c0.14,0.14,0.77,1.75,1.89,4.85l-0.61,4.7l-3.35,3.52c0,0.07-1.66,0.32-4.99,0.75l-4.28-0.42
		c-0.42,0.01-1.41-0.94-2.99-2.85c-0.42-0.2-1.19-1.95-2.32-5.26L208.55,58.19z M222.59,35.33l-4.39-0.41l-2.38,0.68
		c-0.83,0.02-2.62,0.83-5.36,2.42c-0.82,0.71-1.82,2.1-3.03,4.14l-0.21,0l-0.34-5.31c0-0.14-1.75-0.51-5.24-1.12l-5.62,0.35
		l-5.75-0.59c-1.03,0.3-2.83,0.94-5.37,1.9c-0.1,7.09-0.26,12.2-0.46,15.33l0.34,5.2l-0.5,5.12l1.07,5.29l-0.6,5.23l0.86,5.19
		l-0.58,10.44l0.25,1.76c0.3,6.8,0.63,11.42,0.96,13.84l0.03,5.31l0.75,4.98c0.98,0.32,2.48,0.74,4.51,1.25l1.98-0.05l2.71,0.04
		l5.08-0.96c6.1-0.43,9.15-0.75,9.15-0.95l-0.03-1.15c-0.07-2.71-0.31-5.45-0.72-8.22l0.4-4.91c-0.56-2.97-0.85-4.81-0.86-5.5
		l-0.09-3.54l0.5-4.91l0.1,0l3.19,2.74c0.22,0.41,1.66,1.04,4.32,1.88c0.01,0.35,2.27,0.6,6.79,0.77l4.78-0.43
		c0.49-0.01,2.11-0.5,4.86-1.47c0.42-0.01,2.87-1.84,7.37-5.5c1.43-1.01,2.24-2,2.43-2.98c1.13-2.18,2.24-4.85,3.35-8
		c0.87-4.33,1.26-8.13,1.18-11.39l-0.23-5c-0.99-3.31-1.7-5.52-2.14-6.62c-0.47-2-1.56-4.17-3.29-6.49
		c-0.01-0.49-1.41-2.05-4.18-4.69c-2.47-1.68-5.85-3.26-10.12-4.76L222.59,35.33z M140.28,60.48l2.83-3.51
		c0-0.14,1.55-0.39,4.67-0.74l4.49,0.31l3.73,3.35l0.53,4.57l-0.51,4.6l-2.84,3.3c-0.41,0.29-2.03,0.95-4.85,2
		c-1.26-0.46-2.66-0.87-4.2-1.25c-0.28,0.01-1.52-1.11-3.73-3.35c-0.14,0-0.42-1.62-0.85-4.88L140.28,60.48z M138.33,36.14
		c-1.53,0.04-3.05,0.46-4.56,1.26c-1.38,0.31-2.96,1.15-4.73,2.51c-1.72,0.88-4.91,3.98-9.57,9.3l-1.55,4.62
		c-0.75,3.49-1.21,7.33-1.39,11.5l0.26,2.18c1.06,6.51,1.88,10.27,2.46,11.3c0.47,2.07,1.16,3.41,2.08,4.02
		c0.37,0.96,2.51,3.14,6.41,6.51c3.44,1.38,6.7,2.79,9.8,4.24c4.53,0.72,8.29,1.05,11.28,0.97c3.26-0.08,6.73-0.51,10.39-1.3
		c4.21-1.14,6.58-2.07,7.12-2.78c2.06-0.95,4.14-2.57,6.24-4.84c0.55-0.15,1.39-1.42,2.51-3.81c1.99-3.94,3.59-8.08,4.8-12.42
		c-0.3-3.88-0.62-7-0.96-9.36c-0.02-0.83-0.95-4.7-2.79-11.6c-0.01-0.28-1.05-1.61-3.12-3.99c-0.36-0.41-1.77-1.48-4.25-3.23
		c-4.02-2.54-6.94-4-8.76-4.37c-0.57-0.54-2.91-1-7.02-1.39l-6.98,0.28h-4.27L138.33,36.14z M74.82,62.08l2.83-3.51
		c0-0.14,1.55-0.39,4.67-0.74l4.49,0.31l3.73,3.35l0.53,4.57l-0.51,4.6l-2.84,3.3c-0.41,0.29-2.03,0.95-4.85,1.99
		c-1.26-0.45-2.66-0.87-4.2-1.25c-0.28,0.01-1.52-1.11-3.73-3.35c-0.14,0-0.42-1.62-0.85-4.88L74.82,62.08z M72.87,37.74
		c-1.53,0.04-3.05,0.46-4.56,1.26c-1.38,0.31-2.96,1.15-4.73,2.51c-1.72,0.88-4.91,3.98-9.57,9.3l-1.55,4.62
		c-0.75,3.49-1.21,7.33-1.39,11.5l0.26,2.18c1.06,6.51,1.88,10.27,2.47,11.3c0.47,2.07,1.16,3.41,2.08,4.01
		c0.37,0.97,2.51,3.14,6.41,6.51c3.44,1.38,6.7,2.79,9.8,4.24c4.53,0.72,8.29,1.05,11.28,0.98c3.26-0.08,6.73-0.51,10.39-1.3
		c4.21-1.14,6.58-2.07,7.12-2.78c2.06-0.95,4.14-2.57,6.24-4.84c0.55-0.15,1.39-1.42,2.51-3.81c1.99-3.94,3.59-8.08,4.8-12.42
		c-0.3-3.88-0.62-7-0.96-9.36c-0.02-0.83-0.95-4.7-2.79-11.61c-0.01-0.28-1.05-1.61-3.12-3.99c-0.36-0.41-1.77-1.49-4.25-3.23
		c-4.02-2.54-6.94-4-8.76-4.37c-0.57-0.54-2.91-1-7.02-1.39l-6.98,0.28H76.3L72.87,37.74z M14.74,22.38l-4.9-0.19l-4.04,0.83
		c-3.74,0.44-5.61,0.73-5.61,0.87l0.33,4.79c-0.41,3.07-0.57,6.37-0.49,9.91c0.33,5.14,0.53,9.02,0.6,11.66l0.01,0.42l0,8.44
		c0.41,5.34,0.72,12.18,0.92,20.51l-0.71,4.92l1.06,5.19l0.01,4.59l0.11,0.31l3.75,0.12c5.3,0.64,8.81,0.93,10.55,0.89
		c2.71-0.07,5.9-0.32,9.57-0.75l4.81,0.51l9.36-0.75c3.67-0.57,6.58-0.89,8.73-0.94l0.62-0.12c0.14,0,0.55-1.68,1.23-5.03l-0.44-5.1
		l0.18-5.32l-0.97-5.5l-9.55,1.49l-4.71-0.61l-4.79,0.33l-4.7-0.2l-0.64-4.99c-0.05-2.01,0.15-5.42,0.58-10.23l-0.12-0.52
		l-0.21-4.48l0.19-5.01c-0.5-3.32-0.79-6.65-0.87-9.99l-0.01-0.21l-0.11-0.1l0.1-0.11l-0.08-3.13l0.13-7.51l-0.1-4.17
		c-0.01-0.21-1.62-0.65-4.83-1.34L14.74,22.38z"/>
</g>
</svg>
