<?xml version="1.0" encoding="utf-8"?>
<!-- Generator: Adobe Illustrator 23.0.2, SVG Export Plug-In . SVG Version: 6.00 Build 0)  -->
<svg version="1.1" id="Layer_1" xmlns="http://www.w3.org/2000/svg" xmlns:xlink="http://www.w3.org/1999/xlink" x="0px" y="0px"
	 viewBox="0 0 868.19 183.18" style="enable-background:new 0 0 868.19 183.18;" xml:space="preserve">
<style type="text/css">
	.st0{clip-path:url(#SVGID_2_);fill:#F3BC00;}
</style>
<g>
	<defs>
		<rect id="SVGID_1_" width="868.19" height="183.18"/>
	</defs>
	<clipPath id="SVGID_2_">
		<use xlink:href="#SVGID_1_"  style="overflow:visible;"/>
	</clipPath>
	<path class="st0" d="M848.97,130.43l-4.35,2.65c-0.48,0.42-1.44,1.89-2.87,4.41c-0.35,0-0.64,2.06-0.87,6.16l0.27,5.52l0.32,0.41
		c2.11,2.41,4.64,4.74,7.58,7c0,0.21,1.95,0.4,5.84,0.56l2.6-0.65c1.39-0.02,3.71-0.98,6.95-2.89c0.35,0,1.2-1.44,2.56-4.3
		c0.28,0,0.67-1.99,1.18-5.95l-0.37-5.31c0-0.21-0.71-1.03-2.11-2.48c-1.27-1.44-3.13-2.95-5.57-4.52c0-0.14-1.88-0.43-5.64-0.87
		L848.97,130.43z M802.76,117.1c0.07-0.14,1.9-0.78,5.5-1.94l5.02,1.3c0.21,0,1.23,1.58,3.08,4.76l-4.48,0.05
		c-1.67,0.02-3.89,0.18-6.66,0.49l-5.63-0.35L802.76,117.1z M796.75,101.53c-3.05,0.94-5.98,2.15-8.82,3.64
		c-0.14,0-1.2,1.2-3.19,3.58c-2.46,3.22-4.48,6.37-6.04,9.45c-0.16,4.03-0.54,7.65-1.13,10.85l0.22,1.04
		c0.66,3.05,1.01,6.24,1.05,9.58l2.45,5.08c2.74,2.96,4.96,5.61,6.66,7.95c0.42,0.27,2.06,1.19,4.93,2.76
		c3.21,1.14,6.73,2.08,10.56,2.8l5.62-0.9l5.11,0.46c0.83-0.01,1.25-0.05,1.25-0.12c2.01-0.02,4.85-0.65,8.52-1.87
		c0.28,0,3-2.01,8.16-6.03c0.48-0.35,1.51-2,3.07-4.93l-3.67-2.15c-3.35-1.21-5.41-2.09-6.18-2.64c-1.26-1.1-3.53-2.25-6.81-3.47
		c-2.48,1.63-3.72,2.51-3.72,2.65c-0.41,0.21-2.18,0.55-5.3,1l-5.95-0.97l-3.18-4.97l5,0.15c2.71-0.24,6.04-0.38,10-0.43l5.43,0.77
		l9.79-0.32c0.55-0.01,2.43-0.24,5.62-0.69l0.46-4.9c-0.11-3.68-0.29-7.05-0.53-10.1c-1.43-3.53-2.43-5.56-2.99-6.11
		c-0.93-1.86-2.55-4.14-4.87-6.82c-0.42-0.48-2.07-1.71-4.94-3.7c-3.34-0.59-5.85-1.15-7.52-1.69c-1.33-0.47-3.97-0.89-7.93-1.26
		C801.22,100.48,797.51,101.25,796.75,101.53 M716.88,101.29c-0.35,0-1.32,0.29-2.91,0.87c-0.83,0.01-2.53,0.86-5.08,2.56
		c-0.28,0.07-1.13,1.58-2.55,4.51l-0.31-0.1l-0.27-5.83c0-0.14-1.47-0.57-4.39-1.31c-3.61,0.04-6.35,0.28-8.22,0.72
		c-4.79,0.19-8.12,0.48-9.99,0.84c-0.21,0-0.63,3.1-1.25,9.29c0.24,2.36,0.45,5.59,0.63,9.68l-0.78,4.8
		c0.59,3.19,0.91,6.38,0.94,9.58c-0.38,3.69-0.55,7.02-0.51,10.01l0,0.1c0.39,3.89,0.95,7.01,1.67,9.36c0,0.21,1.57,0.57,4.7,1.09
		l7.09-0.08c1.46-0.02,2.98-0.14,4.58-0.36c4.37-0.68,6.55-1.08,6.55-1.22l-0.57-4.16l0.67-4.8l-0.58-4.79
		c-0.02-2.08,0.15-5.25,0.52-9.49l-0.26-4.58l0.78-5.01c0.76-0.49,2.14-1.24,4.14-2.24c0.14,0,1.19,0.89,3.16,2.67
		c0.59,2.77,1.04,5.89,1.36,9.36l-0.26,4.59l0.48,5.83l0.04,3.13l-0.57,5.01l0.68,4.47c0,0.28,1.64,0.61,4.91,0.99l3.65-0.04
		c7.98-0.44,13.05-0.88,15.2-1.32l0.31-9.07l-0.68-4.68l0.36-4.59c-0.03-2.29-0.41-5.48-1.15-9.57l1.72-4.29
		c0-0.21,1.13-1.06,3.41-2.54l3.66,1.31c0.42,0,0.63,0.51,0.64,1.56l0.03,2.19c0.4,5,0.62,8.5,0.64,10.52l0.05,4.17l0.6,6.87
		l0.01,1.15c0.02,1.74-0.2,4.03-0.65,6.89l0,0.1c3.2,0.24,6.29,0.55,9.29,0.94c0.9-0.01,1.35-0.05,1.35-0.12
		c5.42-0.34,9.54-0.7,12.39-1.08c0.21,0,0.68-1.64,1.4-4.91c-0.33-10.97-0.61-17.15-0.84-18.54c-0.35-6.25-0.64-10.1-0.86-11.56
		c-0.33-4.79-0.57-7.18-0.71-7.18c-1.22-2.97-2.28-4.91-3.19-5.8c-0.64-1.24-2.47-2.96-5.48-5.15c-2.92-0.52-6.23-0.97-9.91-1.35
		l-2.4,0.13c-2.36,0.03-3.54,0.21-3.54,0.56c-1.52,0.43-3.7,1.61-6.53,3.51c-0.48,0.21-1.68,1.58-3.6,4.1l-1.27-1.65
		c-0.99-1.59-2.08-2.69-3.27-3.3c-0.63-0.76-2.63-1.85-5.98-3.27C722.34,101.09,719.32,101.26,716.88,101.29 M655.75,104.7
		c-0.27,0.35-0.71,1.29-1.32,2.83c-0.61,0.91-0.9,3.03-0.87,6.37c-2.42,7.11-3.63,11.16-3.61,12.13c-0.93,4.18-1.49,6.27-1.7,6.27
		l-1.18-3.01c-0.35,0-0.72-1.87-1.11-5.62l-2.47-6.64c-0.93-2-1.4-4.15-1.43-6.44c-0.01-0.69-0.52-2.6-1.52-5.71
		c-0.21-0.14-2.02-0.46-5.43-0.98l-5.52,0.27l-0.52,0.01c-3.2,0.04-6.53-0.1-10.01-0.41l-4.88,1.41c1.56,3.18,2.92,6.53,4.07,10.06
		c0.8,3.05,1.77,5.71,2.9,7.99c2.13,3.73,3.19,5.9,3.2,6.53c0.79,2.56,1.9,5.26,3.32,8.09c1.56,2.55,3.48,7.12,5.78,13.69
		c1.77,2.83,2.69,4.38,2.76,4.66l0.01,0.73c0,0.28-1.13,1.82-3.39,4.62c-0.35,0.21-2.15,0.58-5.41,1.1l-6.47-0.86
		c-0.14,0-0.21,0.11-0.21,0.32c-1.01,2.72-1.5,5.54-1.47,8.46c0.01,0.69-0.42,2.57-1.29,5.64l0.16,4.79
		c0.14,0.21,1.01,0.58,2.62,1.12c0.7,0.41,2.75,0.77,6.16,1.08l4.47-0.78l4.8,0.47c3.4-0.66,6.55-1.39,9.46-2.19
		c0.83-0.63,3.23-2.89,7.22-6.75c2.93-5.04,4.8-9.05,5.59-12.05c1.83-3.98,3.22-7.33,4.16-10.05c1.42-3,2.47-5.59,3.14-7.75
		c-0.01-0.9,0.91-2.79,2.75-5.66c0.21,0,0.57-1.46,1.1-4.39c-0.01-0.83,0.91-2.72,2.75-5.66c1.86-7.17,3.27-11.5,4.23-12.97
		c1.15-2.79,2.29-6.45,3.42-10.98l0-0.21l-14.71-1.29C662.12,103.65,658.93,104.24,655.75,104.7 M585.83,85.27l-4.9-0.26l-4.06,0.77
		c-3.75,0.39-5.62,0.66-5.62,0.79l0.26,4.79c-0.45,3.06-0.66,6.36-0.62,9.91c0.27,5.14,0.41,9.03,0.45,11.67l0.01,0.42l-0.11,8.44
		c0.34,5.35,0.55,12.19,0.65,20.52l-0.78,4.91l1,5.2l-0.05,4.59l0.11,0.31l3.75,0.16c5.29,0.71,8.8,1.05,10.54,1.03
		c2.71-0.03,5.9-0.24,9.58-0.63l4.8,0.57l9.37-0.63c3.68-0.53,6.59-0.8,8.74-0.83l0.62-0.11c0.14,0,0.57-1.67,1.3-5.02l-0.37-5.1
		l0.25-5.32l-0.9-5.51l-9.57,1.36l-4.7-0.68l-4.79,0.26l-4.69-0.26l-0.58-5c-0.02-2.01,0.22-5.42,0.72-10.22l-0.11-0.52l-0.15-4.48
		l0.26-5.01c-0.46-3.33-0.7-6.66-0.74-9.99l0-0.21l-0.1-0.1l0.1-0.1l-0.04-3.13l0.23-7.51l-0.05-4.17c0-0.21-1.61-0.68-4.81-1.4
		L585.83,85.27z M508.94,104.38c-0.42,0-1.76,0.68-4.04,2.03c-0.42,0-1.38,1.41-2.87,4.2l-0.21,0l-0.11-0.52l-0.03-2.92l-0.13-2.19
		c0-0.21-1.85-0.39-5.53-0.56l-2.92,0.03c-0.97,0.01-2.71-0.11-5.21-0.36c-2.91,0.52-4.68,0.78-5.31,0.79l-3.44,0.04
		c-0.14,0-0.34,0.73-0.6,2.19c-0.4,1.4-0.58,4.28-0.53,8.65l0.04,3.75l0.29,6.88l-0.4,10.63l0.58,5.52l-0.46,5.32
		c0.76,5.55,1.14,8.99,1.16,10.3l0,0.1l0.11,0.1c2.44,0.67,5.57,1.12,9.39,1.35l4.79-0.47l4.8,0.15c2.63-0.65,4.12-1.09,4.47-1.3
		l-0.26-4.58c0.11-2.15,0.16-4,0.14-5.52l-0.03-2.61l-0.28-6.14l0.15-4.79l-0.37-4.58l1.51-4.81l4.04-2.34l4.39,1.51
		c0.28,0,0.51,1.77,0.68,5.31l-0.15,4.9c0.03,2.78,0.41,5.94,1.15,9.47c-0.53,2.79-0.78,4.49-0.78,5.11l0.04,3.75l-0.25,5.21
		l-0.1,0.11c3.34,0.52,6.95,0.75,10.84,0.71l0.52-0.01l4.27-0.15l3.34,0.07c0.63-0.01,2.43-0.41,5.41-1.21
		c0.07-0.07,0.36-1.74,0.88-5.01l-0.79-5.51l0.1-0.11l0.15-5.21l-0.27-5.41l0.35-5.53c-0.01-0.69-0.23-2.36-0.68-5
		c-0.05-4.38-0.94-9.19-2.66-14.45l-2.65-3.62c-0.42-0.48-1.75-1.47-3.99-2.98c0-0.35-3.48-0.86-10.44-1.55
		C513.79,103.46,511.08,103.87,508.94,104.38 M450.01,137.46c-0.26,1.81-0.89,4.35-1.89,7.63l-5.61,1.94l-1.36-0.09l-2.4,0.03
		c-0.14-0.14-0.68-1.35-1.6-3.63l2.04-4.19l4.57-1.51l4.9,0.26L450.01,137.46z M435.66,103.75c-0.7,0.01-2.46,0.62-5.29,1.83
		c-2.83,1.91-5.17,3.29-7.04,4.14c-0.77,0.01-2.31,1.35-4.64,4.01l0,0.1l5.49,5.98c2.04,2.2,4.11,4.02,6.21,5.45l0.31,0l4.97-3.18
		l6.44-1.53l4.59,0.68c0.14,0,0.61,1.42,1.4,4.26c-1.94,0.09-2.92,0.17-2.92,0.24c-5.35,0.2-8.58,0.44-9.68,0.74
		c-1.6,0.02-4.3,0.92-8.1,2.7c-2.83,1.56-4.28,2.48-4.35,2.76c-2.75,2.81-4.77,5.23-6.07,7.26l0.37,5.31l0.05,4.69
		c0,0.42,0.36,1.46,1.08,3.11c0.01,0.56,0.96,2.35,2.88,5.39c0.35,0.55,0.98,0.96,1.89,1.23c1.82,0.88,4.29,1.65,7.42,2.31
		l10.53,0.51l4.57-1.72c0.28,0,1.37-1.51,3.28-4.52l0.1,0c0.28,0,0.5,1.49,0.68,4.47l5.12,0.98l5.31-0.58l5.63,0.56l5.3-1.42
		c0.14,0,0.3-1.46,0.47-4.38c-0.17-2.98-0.27-5.66-0.3-8.02c-0.02-1.81,0.11-5.52,0.4-11.15l-1.1-4.68l0.05-5l-1.35-9.05
		c-0.01-0.56-0.79-1.93-2.34-4.14c-0.92-1.45-2.92-3.44-6.01-5.98c-1.2-1.17-2.35-1.81-3.46-1.94c-2.02-0.74-5.74-1.08-11.16-1.02
		l-1.15,0.01l-5.53-0.77L435.66,103.75z M401.66,106.12l-3.75,0.04l-4.99,1c-0.79,3.34-2.03,7.67-3.71,12.96
		c-0.65,3.97-1.08,6.16-1.28,6.58c-0.8,2.51-1.43,5.43-1.88,8.77l-0.31,0l-0.42,0.11c-1.07-2.77-2.02-6.54-2.84-11.33
		c-0.02-1.46-0.71-4.33-2.08-8.63c-0.93-1.93-1.65-4.67-2.18-8.21c0-0.21-1.85-0.53-5.53-0.98l-10.41,0.74l-5.01-0.26l-4.99,0.79
		c0.15,0.83,0.26,1.25,0.33,1.25c0.51,2.5,1.48,5.23,2.91,8.2c1.42,2.76,2.56,5.56,3.43,8.4c1.09,4.43,2.21,7.89,3.35,10.38
		c1.64,3.46,2.99,6.64,4.07,9.54c1.85,3.73,2.77,5.7,2.78,5.91c0.73,2.91,1.83,5.61,3.32,8.09c0,0.14,1.74,0.54,5.22,1.19l4.89-0.47
		l5.22,0.67l0.52-0.11l2.29-0.03c1.74-0.02,3.99-0.39,6.76-1.12l2.15-3.57c0.48-0.56,0.95-2.03,1.41-4.39
		c0.13-1.18,1.01-2.96,2.65-5.34c1.29-2.93,2.23-5.86,2.82-8.79c0.13-1.04,1.07-3.28,2.84-6.7c0.86-3.35,1.81-5.82,2.83-7.43
		c0.68-0.98,1.15-2.41,1.41-4.29c-0.01-1.39,0.49-2.99,1.51-4.81c0.82-1.47,1.66-3.8,2.53-7.01l0-0.1l-0.11-0.1
		c-3.27-0.31-6.51-0.72-9.7-1.24L401.66,106.12z M293.16,122.88c0.07-0.14,1.9-0.79,5.5-1.94l5.02,1.3c0.21,0,1.23,1.59,3.08,4.76
		l-4.48,0.05c-1.67,0.02-3.89,0.18-6.66,0.49l-5.63-0.35L293.16,122.88z M287.15,107.31c-3.05,0.94-5.99,2.15-8.82,3.64
		c-0.14,0-1.2,1.19-3.19,3.58c-2.47,3.22-4.48,6.37-6.04,9.45c-0.16,4.03-0.54,7.65-1.13,10.85l0.22,1.04
		c0.66,3.05,1.01,6.24,1.05,9.57l2.45,5.08c2.74,2.96,4.96,5.61,6.65,7.95c0.42,0.27,2.06,1.19,4.93,2.76
		c3.21,1.14,6.73,2.08,10.56,2.8l5.62-0.9l5.11,0.46c0.83-0.01,1.25-0.05,1.25-0.12c2.01-0.02,4.86-0.65,8.52-1.87
		c0.28,0,3-2.01,8.16-6.03c0.48-0.35,1.51-2,3.07-4.93l-3.67-2.15c-3.35-1.21-5.41-2.09-6.18-2.64c-1.26-1.1-3.54-2.25-6.81-3.46
		c-2.48,1.63-3.72,2.51-3.72,2.65c-0.41,0.21-2.18,0.55-5.3,1l-5.95-0.97l-3.18-4.97l5,0.15c2.71-0.24,6.04-0.38,10-0.43l5.43,0.77
		l9.79-0.32c0.55-0.01,2.43-0.24,5.62-0.69l0.47-4.9c-0.11-3.68-0.29-7.05-0.53-10.1c-1.43-3.53-2.43-5.56-2.99-6.11
		c-0.92-1.87-2.55-4.14-4.87-6.82c-0.42-0.48-2.07-1.71-4.94-3.69c-3.34-0.59-5.85-1.15-7.52-1.69c-1.33-0.47-3.97-0.89-7.93-1.26
		C291.62,106.26,287.91,107.03,287.15,107.31 M231.79,96.58c-0.45,3.41-0.65,7.27-0.6,11.57l-0.1,0.63
		c-0.56,0.01-1.64-0.19-3.24-0.59l-3.64,0.67c-0.14,0-0.43,1.78-0.88,5.33l1.06,10.82c0,0.14,1.22,0.37,3.65,0.69l3.64-0.35l0.1,0
		l0.1-0.11c0.03,2.5-0.07,5.77-0.31,9.8l0.23,2.29c0.17,8.96,0.43,13.44,0.78,13.43c0.44,2.43,1.02,3.91,1.72,4.46
		c0.36,1.11,1.98,3.04,4.86,5.78l4.08,1.31c3.27,0.52,8.04,1.02,14.29,1.51l4.16-0.99c2.49-1,3.73-1.57,3.73-1.71l-0.05-4.58
		c-0.01-0.56,0.28-2.57,0.87-6.05l-1.21-5.51l-0.1,0l-3.95,1.19l-4.92-1.72c-0.66-3.12-1.25-6.41-1.78-9.88l0.15-5.32l-0.15-4.38
		l3.02-0.03l8.44,0.01l0.1,0c0.25-2.64,0.35-6.12,0.3-10.42l-0.38-5.83l0-0.21c0-0.21-1.92-0.4-5.74-0.56l-5.83,0.59l0.56-5.95
		l-0.59-5.72c0-0.21-1.71-0.43-5.11-0.67l-6.56,0.07c-1.32,0.01-3.58-0.2-6.78-0.65L231.79,96.58z M169.83,84.89
		c-3.35,0.04-6.24,0.45-8.67,1.25l-0.82,10.01l0.47,5l-0.13,6.57l0.03,2.71l-0.56,6.05c0.02,2.15,0.3,5.56,0.85,10.2l-0.41,10.01
		l0.84,10.1l-0.15,5c0.45,2.84,0.77,6.21,0.95,10.1c0,0.21,1.19,0.37,3.57,0.48l5.56,0.98l4.29-0.05c0.56-0.01,2.02-0.3,4.39-0.88
		c3.48-0.39,5.33-0.65,5.54-0.79l-0.19-7.71l-0.01-0.73l-0.01-0.63l-0.89-4.57l0.57-4.59l-0.13-2.71l-0.01-1.15l-0.12-0.94l0.31,0
		l0.86,2.07c0.78,1.8,1.81,3.59,3.08,5.38c0.91,0.75,1.84,2.76,2.78,6.01c0.07,0.49,2.09,3.62,6.05,9.41
		c2.86,0.66,6.51,0.97,10.95,0.92c7.15-0.08,12.36-0.42,15.62-1.01l-1.3-4.36l-3.71-5.69c-0.5-1.52-1.92-3.59-4.24-6.2
		c-1.42-2.76-3.01-5.24-4.77-7.45c-0.42-0.48-1.31-2.31-2.67-5.49l3.08-3.99c6.78-8.55,11.26-15.1,13.43-19.64l-0.1-0.1l-4.79,0.16
		l-5.64-0.87c-1.25,0.01-5.07,0.37-11.45,1.07l-2.71,0.03l-2.19-0.08l-2.77,4.2c-2.79,5.31-5.92,10.73-9.4,16.26l-0.1,0l-0.58-4.89
		l0.15-4.9l-0.37-4.68l0.57-4.8l-0.58-4.89l0.26-4.8l-0.78-4.78c0.59-3.41,0.86-6.58,0.83-9.49l0-0.1l0-0.1l-3.04-0.07
		c-1.05,0.01-3.22-0.38-6.5-1.18L169.83,84.89z M121.2,124.83c0.07-0.14,1.9-0.79,5.5-1.94l5.02,1.3c0.21,0,1.23,1.58,3.08,4.76
		l-4.48,0.05c-1.67,0.02-3.89,0.18-6.66,0.49l-5.63-0.35L121.2,124.83z M115.19,109.26c-3.05,0.94-5.99,2.15-8.82,3.64
		c-0.14,0-1.2,1.2-3.19,3.58c-2.46,3.22-4.48,6.37-6.04,9.45c-0.16,4.03-0.54,7.65-1.13,10.85l0.22,1.04
		c0.66,3.05,1.01,6.24,1.05,9.58l2.45,5.08c2.74,2.96,4.96,5.61,6.65,7.95c0.42,0.27,2.06,1.19,4.93,2.76
		c3.21,1.14,6.73,2.08,10.56,2.8l5.62-0.9l5.11,0.46c0.83-0.01,1.25-0.05,1.25-0.12c2.01-0.02,4.85-0.65,8.52-1.87
		c0.28,0,3-2.01,8.16-6.03c0.48-0.35,1.51-2,3.07-4.93l-3.67-2.15c-3.35-1.21-5.41-2.09-6.18-2.64c-1.26-1.1-3.54-2.25-6.81-3.46
		c-2.48,1.63-3.72,2.51-3.72,2.65c-0.41,0.21-2.18,0.55-5.3,1l-5.95-0.98l-3.18-4.96l5,0.15c2.71-0.24,6.04-0.38,10-0.43l5.43,0.77
		l9.79-0.32c0.56-0.01,2.43-0.24,5.62-0.69l0.47-4.9c-0.11-3.68-0.29-7.05-0.53-10.1c-1.43-3.53-2.43-5.56-2.99-6.11
		c-0.92-1.86-2.55-4.14-4.87-6.82c-0.42-0.48-2.07-1.71-4.94-3.69c-3.34-0.59-5.85-1.15-7.52-1.69c-1.32-0.47-3.97-0.89-7.93-1.26
		C119.66,108.21,115.95,108.98,115.19,109.26 M66.44,110.23l0.11,0.1l0.27,5l-0.15,5.42l0.26,5l0.11,0.41l-0.88,5.22l0.58,5.52
		l-0.09,0.94l0.03,2.19l-0.08,2.19l0.68,5.31l-0.36,5.32l0.48,5.41l-0.57,5.11c4.94,0.71,8.73,1.05,11.37,1.02l1.88-0.02
		c4.72-0.05,8.19-0.37,10.41-0.95c-0.03-2.71,0.14-6.32,0.5-10.84l-0.01-0.83l-0.15-4.38l0.24-6.26c-0.05-4.58-0.16-7.88-0.32-9.9
		l0.24-6.78l-0.02-1.35c-0.49-6.87-0.75-11.28-0.77-13.23l-0.1,0c-3.34-0.24-6.43-0.55-9.29-0.94
		C77.54,108.96,72.75,109.4,66.44,110.23 M75.91,82.1c-1.39,0.29-3.25,1.22-5.6,2.77c-0.48,0.28-1.55,1.55-3.19,3.79
		c-0.28,0-0.54,1.71-0.78,5.11l0.36,4.27c0.01,0.56,0.82,1.9,2.44,4.04c0,0.35,1.3,1.2,3.89,2.56c0,0.21,1.85,0.61,5.54,1.19
		l4.58-0.68c0.14,0,1.21-0.78,3.2-2.33c0.89-0.7,1.85-1.96,2.87-3.78c0.49,0,0.81-1.82,0.98-5.43l-0.26-4.17
		c-0.01-0.56-0.72-1.73-2.12-3.52c-0.29-0.76-1.34-1.58-3.15-2.47c-0.84-0.68-2.97-1.35-6.38-2.01L75.91,82.1z M22.22,92.08
		c-3.48-0.31-6.88-0.44-10.22-0.4c-1.66,0.23-2.5,0.38-2.5,0.44c-5.13,0.62-7.84,1.03-8.11,1.24l0.14,3.33
		c-0.02,4.52-0.11,8.2-0.29,11.05l0.88,4.37c0,0.14,1.57,0.3,4.7,0.47c2.43-0.37,7.6-0.71,15.51-1.01l4.7,0.89l-1.75,1.69
		c-1.44,1.48-2.99,3.23-4.63,5.26c-2.05,3.08-3.45,5.08-4.2,5.99c-0.61,1.12-2.43,3.12-5.45,6c-4.8,5.61-8.12,9.61-9.97,11.99
		c-0.45,3.2-0.79,6.71-1.03,10.54c0.74,3.74,1.33,7.07,1.78,9.98c0,0.21,1.53,0.54,4.6,0.99l3.54-0.04l5.94,0.24
		c2.85-0.03,6.14-0.35,9.89-0.95l4.9,0.57l5.73-0.38l0.83-0.01l8.96,0.21l3.44-0.04c2.57-0.03,5.97-0.48,10.2-1.37l1.24-9.91
		c-0.24-2.64-0.73-6.1-1.47-10.4c-2.99,0.03-6.18,0.38-9.58,1.05c-3.27-0.38-6.5-0.66-9.7-0.83l-4.79,0.68l-5.01-0.57l0-0.1
		l2.67-3.26c3.37-3.16,5.29-5.13,5.77-5.9c3.77-4.14,6.07-6.91,6.89-8.31c3.42-4.48,6.54-8.2,9.36-11.15
		c0.69-0.63,1.54-2.07,2.56-4.3c0.42,0,0.85-1.68,1.3-5.02l-0.04-3.23l0.46-5.53l-1.3-4.05c0-0.14-1.64-0.5-4.91-1.09l-5.1,0.68
		l-5.32-0.36l-4.89,0.37l-0.21,0.11c-3.06-0.38-6.5-0.66-10.33-0.82L22.22,92.08z"/>
	<path class="st0" d="M681.44,8.81l-5.01-0.29c-6.4,2.52-10.97,4.58-13.71,6.17l-2.61,4.02c-0.83,2.87-1.58,6.22-2.26,10.06
		l0.49,2.91c0.25,1.66,0.92,3.35,2,5.06c0.02,0.63,1.34,2.19,3.97,4.7l8.32,3.34c0.01,0.35,1.89,0.68,5.65,1.01
		c0.28-0.01,1.48,0.94,3.61,2.83l-2.86,2.57l-4.07-0.11c-0.49,0.01-1.99-0.58-4.52-1.77c-0.14,0-1.24-1.15-3.32-3.46l-0.11,0
		l-0.91,1.06c-1.14,1.9-4.61,6.09-10.43,12.55l3.63,3.35c0.28,0.27,2.01,1.13,5.17,2.58c3.98,0.67,7.61,1.34,10.89,2.03l5.61-0.76
		l5.11,0.08l5.18-1.27c2.96-0.91,5.48-2.01,7.53-3.31c0.9-0.3,2.01-1.47,3.35-3.52c0.82-0.78,1.31-1.84,1.49-3.16
		c0.52-1.61,0.83-4.4,0.94-8.36l-0.94-4.25c-0.01-0.49-0.75-2.14-2.21-4.95c0-0.14-1.32-1.39-3.95-3.76
		c-4.22-1.91-6.95-2.92-8.2-3.03c-4.06-1.08-7-2.16-8.84-3.22c0.2-0.35,1.36-1.28,3.48-2.79l3.67,0.95
		c0.76-0.02,2.91,0.97,6.43,2.97c0.21-0.01,0.31-0.08,0.31-0.22c2.49-3.33,6.06-7.86,10.72-13.6l0-0.1
		c-2.76-1.95-5.44-3.58-8.04-4.91c-3.01-0.97-6.54-1.65-10.58-2.04L681.44,8.81z M602.39,13.04l-3.65,0.09
		c-3.74,0.37-5.61,0.66-5.61,0.87l0.03,1.46c0.07,2.78-0.14,5.74-0.62,8.88l0.77,5.71l-0.18,5.32l0.66,5.72l0.01,4.48
		c0.02,0.7,0.3,2.57,0.87,5.61l-0.19,4.9l0.99,2.17c0.38,1.38,1.6,3.12,3.67,5.23c0.22,0.48,1.74,1.63,4.57,3.43
		c2.31,0.71,5.66,1.18,10.04,1.42c2.97-0.56,5.92-1.01,8.83-1.36c2.52-2.08,4.55-4.24,6.09-6.51c0.07,0,0.18,0.1,0.32,0.31
		l-0.28,5.43c0.01,0.21,1.64,0.55,4.9,1.03l4.65-0.74l4.58,0.41c2.89-0.56,5.82-0.87,8.8-0.94c0.73-4.19,1.05-7.84,0.98-10.97
		c-0.22-3.33-0.52-6.87-0.89-10.61l0.6-5.33c-0.1-4.1-0.46-7.63-1.09-10.61l0.58-6.16l-0.11-4.38c-0.01-0.42-0.37-2.21-1.07-5.39
		c0-0.14-1.53-0.41-4.59-0.83l-4.76,0.53l-4.68-0.51c-3.8,0.3-7.01,0.69-9.62,1.17l1.05,4.77l-0.1,0l-0.27,6.05l0.16,6.35
		c0.02,0.9-0.1,2.99-0.37,6.26l0.74,4.67l-1.45,4.83c-0.61,0.57-1.91,1.61-3.89,3.12l-4.12-2.4c-0.22-0.34-0.75-2.17-1.59-5.49
		l-0.21-4.27l0.4-4.91c-0.16-3.68-0.41-6.76-0.75-9.26l0.71-4.92l-0.11-4.38c-0.01-0.21-0.36-0.3-1.05-0.29l-2.82-0.04
		c-0.9,0.02-2.89-0.24-5.96-0.79L602.39,13.04z M565.75,11.64l-5.01-0.29c-6.4,2.52-10.97,4.58-13.71,6.17l-2.61,4.02
		c-0.83,2.87-1.59,6.22-2.26,10.06l0.49,2.91c0.25,1.66,0.91,3.35,2,5.06c0.01,0.63,1.34,2.19,3.97,4.7l8.32,3.34
		c0.01,0.35,1.89,0.68,5.65,1.01c0.28-0.01,1.48,0.94,3.61,2.83l-2.86,2.57l-4.07-0.11c-0.49,0.01-1.99-0.58-4.52-1.77
		c-0.14,0-1.24-1.15-3.32-3.46l-0.1,0l-0.91,1.07c-1.14,1.9-4.61,6.09-10.43,12.55l3.63,3.35c0.28,0.27,2.01,1.13,5.17,2.58
		c3.98,0.67,7.61,1.34,10.89,2.03l5.61-0.76l5.11,0.08l5.18-1.27c2.97-0.91,5.48-2.01,7.53-3.31c0.9-0.3,2.01-1.47,3.35-3.52
		c0.81-0.78,1.31-1.84,1.49-3.16c0.52-1.61,0.83-4.4,0.94-8.36l-0.94-4.25c-0.01-0.49-0.75-2.14-2.21-4.95
		c0-0.14-1.32-1.39-3.95-3.76c-4.22-1.91-6.95-2.92-8.2-3.03c-4.06-1.08-7-2.16-8.83-3.22c0.2-0.35,1.36-1.28,3.48-2.79l3.67,0.95
		c0.76-0.02,2.91,0.97,6.43,2.97c0.21-0.01,0.31-0.08,0.31-0.22c2.49-3.33,6.06-7.86,10.72-13.6l0-0.1
		c-2.76-1.95-5.44-3.58-8.04-4.91c-3.01-0.97-6.54-1.65-10.58-2.04L565.75,11.64z M531.79,13.41c-0.28,0.01-2.03,0.78-5.26,2.32
		c-0.21,0.01-1.04,1.76-2.48,5.27l-0.53-0.3l-0.46-6.03l-2.4-0.05c-6.75-0.25-11.37-0.35-13.87-0.29c-0.76,0.02-2.77,0.35-6.02,0.98
		l0.23,5l-0.39,5.53l0.34,5.41l-0.06,1.77c-0.24,7.37-0.33,12-0.29,13.87l0.45,5.83l-0.08,0.94l0.13,9.69l1.38,5.39
		c0,0.07,1.36,0.32,4.08,0.73c1.74-0.04,4.93-0.33,9.57-0.86l4.69,0.09c3.18-0.5,4.78-0.78,4.77-0.85l0.02-3.54l-0.02-0.73
		l0.08-0.84l-0.75-4.98l0.7-5.33c-0.08-3.13-0.4-6.49-0.98-10.09c-0.01-0.35,0.41-1.5,1.27-3.47c-0.01-0.49,1.16-2.18,3.52-5.09
		c0.27-0.14,2-0.5,5.19-1.06l4.71,0.82c0.21-0.01,0.37-0.49,0.48-1.47c0.66-1.54,1.24-6.11,1.75-13.7l-0.64-4.88
		c0-0.14-1.51-0.48-4.51-1.04L531.79,13.41z M461.33,31.5c0.07-0.14,1.89-0.81,5.48-2.01l5.03,1.23c0.21,0,1.25,1.57,3.14,4.72
		l-4.48,0.11c-1.67,0.04-3.89,0.24-6.66,0.58l-5.63-0.28L461.33,31.5z M455.11,16.01c-3.04,0.98-5.96,2.23-8.77,3.76
		c-0.14,0-1.19,1.21-3.14,3.62c-2.42,3.26-4.4,6.43-5.92,9.53c-0.11,4.03-0.44,7.66-0.98,10.86l0.23,1.04
		c0.7,3.04,1.09,6.23,1.17,9.56l2.52,5.05c2.78,2.92,5.04,5.54,6.76,7.86c0.42,0.27,2.08,1.17,4.96,2.69
		c3.22,1.1,6.75,1.99,10.59,2.66l5.61-0.97l5.12,0.4c0.83-0.02,1.25-0.07,1.25-0.13c2.01-0.05,4.85-0.71,8.5-1.98
		c0.28-0.01,2.97-2.05,8.08-6.14c0.48-0.36,1.48-2.02,3.01-4.97l-3.7-2.1c-3.36-1.17-5.43-2.02-6.21-2.56
		c-1.28-1.08-3.56-2.21-6.86-3.38c-2.46,1.66-3.69,2.56-3.69,2.7c-0.41,0.22-2.17,0.57-5.29,1.07l-5.96-0.9l-3.25-4.92l5.01,0.09
		c2.7-0.27,6.03-0.46,9.99-0.56l5.44,0.7l9.79-0.45c0.56-0.01,2.43-0.27,5.61-0.76l0.4-4.91c-0.16-3.68-0.38-7.04-0.66-10.1
		c-1.48-3.51-2.5-5.53-3.07-6.07c-0.95-1.85-2.6-4.11-4.96-6.76c-0.43-0.48-2.09-1.68-4.99-3.63c-3.35-0.54-5.86-1.07-7.54-1.59
		c-1.33-0.45-3.98-0.84-7.95-1.16C459.57,14.9,455.87,15.72,455.11,16.01 M421.52,16.94l-3.75,0.09l-4.98,1.06
		c-0.75,3.35-1.93,7.69-3.54,13.01c-0.6,3.97-1,6.17-1.19,6.59c-0.77,2.52-1.36,5.45-1.77,8.8l-0.31,0.01l-0.41,0.11
		c-1.11-2.75-2.11-6.51-2.99-11.29c-0.04-1.46-0.77-4.32-2.19-8.6c-0.95-1.92-1.71-4.65-2.28-8.18c-0.01-0.21-1.86-0.51-5.55-0.91
		l-10.4,0.88l-5.01-0.19l-4.98,0.85c0.16,0.83,0.27,1.24,0.34,1.24c0.55,2.49,1.55,5.21,3.01,8.16c1.46,2.74,2.64,5.53,3.54,8.36
		c1.15,4.42,2.31,7.87,3.48,10.34c1.68,3.43,3.08,6.59,4.19,9.49c1.9,3.71,2.85,5.66,2.85,5.87c0.76,2.9,1.91,5.58,3.43,8.05
		c0,0.14,1.75,0.51,5.24,1.12l4.89-0.54l5.23,0.6l0.52-0.12l2.29-0.06c1.74-0.04,3.98-0.44,6.74-1.21l2.1-3.6
		c0.47-0.57,0.92-2.04,1.35-4.41c0.11-1.18,0.97-2.98,2.58-5.38c1.25-2.95,2.15-5.89,2.7-8.82c0.11-1.04,1.03-3.29,2.75-6.74
		c0.82-3.35,1.73-5.84,2.74-7.47c0.67-0.99,1.12-2.43,1.35-4.31c-0.03-1.39,0.45-3,1.45-4.83c0.8-1.48,1.61-3.82,2.43-7.04l0-0.1
		l-0.11-0.1c-3.27-0.27-6.51-0.64-9.72-1.12L421.52,16.94z M304.08,1.05l-0.83,0.02l-4.48,0.01l-4.15,0.83
		c-0.56,2.79-0.79,6.24-0.69,10.34l0.56,5.93c0.04,1.81-0.12,6.61-0.48,14.4l0.44,5.2l0.02,5l0.64,4.99
		c-0.37,4.8-0.51,9.18-0.41,13.14l0,0.1c0.08,3.4,0.35,7.32,0.81,11.76c0,0.14,1.3,0.45,3.88,0.95c0.01,0.28,3.9,0.46,11.69,0.55
		l6.55-0.58l2.4-0.06l6.45-0.37l15.01-0.05l4.66-1.16c0.14-0.07,0.55-1.72,1.23-4.93c-0.57-3.39-0.86-5.4-0.88-6.02l-0.08-3.23
		c-0.05-2.15-0.21-4.13-0.46-5.93l-9.25,1.16l-4.7-0.3l-4.68,0.32c-2.79-0.42-6.02-0.58-9.71-0.49l-0.1,0l-0.16-6.67
		c3.55,0.4,7,0.56,10.33,0.48l4.99-0.64c1.53,0.1,3.79,0.12,6.78,0.04l2.08-0.05l0.73-0.12c0.21-0.01,0.62-1.58,1.24-4.72
		l-0.25-1.87c-0.75-5.05-1.16-9.07-1.23-12.06l0-0.1l-0.11-0.1l-3.02,0.07l-0.42,0.01l-6.35,0.36l-9.59,0.03l-4.58,0.11l-0.31,0.11
		l-0.36-6.04c4.01-0.72,7.51-1.12,10.5-1.19c3.05-0.08,6.57,0.12,10.54,0.58l4.68-0.32c0.14,0,0.2-0.18,0.2-0.53l1-14.3l-1.16-4.66
		L338.35,0l-4.98,0.75l-9.81-0.59l-4.99,0.54l-4.8-0.3C310.36,0.75,307.14,0.97,304.08,1.05 M255.8,45.59l4.71,0.93l2.49,3.8
		c-0.13,0.42-0.66,1.51-1.59,3.27c0.01,0.35-0.61,0.68-1.85,0.98c-1.24,0.52-4.18,0.83-8.84,0.95l-0.83,0.12l-0.64-4.78l0.4-4.8
		l0-0.1L255.8,45.59z M254.99,20.9c0.21,0.13,1.5,0.38,3.88,0.74c0.21-0.01,0.93,1.12,2.17,3.39c0.01,0.21-0.49,1.33-1.48,3.37
		c0,0.14-1.41,0.59-4.24,1.36l-6.04,0.36l-0.63-4.36l0.41-4.39L254.99,20.9z M244,2.2c-9.17,0.22-15.06,0.68-17.69,1.37
		c-0.43,2.24-0.66,5.61-0.69,10.13l0.54,4.99c-0.33,3.41-0.42,8.35-0.26,14.81c0.13,5.21,0.47,12.18,1.03,20.92l-0.08,5.21
		c0.16,3.61,0.32,6,0.49,7.18c0.48,5.41,0.79,8.11,0.93,8.11c2.01-0.05,5.15,0.15,9.4,0.6l11.99,0.23c2.97-0.63,6.12-1.16,9.45-1.58
		c8.8-0.77,13.21-1.29,13.2-1.57c1.25-0.03,3.52-0.85,6.82-2.46c0.27-0.08,1.47-1.11,3.57-3.11c0.27-0.28,1.24-1.66,2.92-4.14
		c0.2-0.42,0.68-1.86,1.46-4.31c0.35-0.01,0.5-3.62,0.46-10.85l-1.76-3.71c-0.01-0.28-1.11-1.43-3.32-3.46
		c-2.68-1.53-5.24-2.75-7.7-3.67c-0.77-0.12-1.15-0.35-1.16-0.7c0.2-0.21,1.51-0.77,3.92-1.66c0.28-0.01,1.4-0.97,3.37-2.9
		c0.62-0.36,1.45-1.91,2.49-4.65c0.28-0.01,0.51-2.03,0.68-6.06l-0.17-2.5l-0.05-2.19c-0.01-0.28-0.16-0.76-0.45-1.45
		c-0.76-2.62-1.28-3.93-1.56-3.92c-1.87-2.52-3.36-3.98-4.48-4.37c-1.63-1.14-3.7-2.13-6.22-2.98c-0.01-0.28-2.03-0.58-6.07-0.89
		l-3.44,0.08l-11.28-0.77L248.06,2L244,2.2z M186.58,4.13l-5.01-0.29l-4.99,0.54l-0.1,0l-0.11-0.1l-9.59-0.18l-4.56,1.15
		c-0.21,0.01-0.51,1.72-0.92,5.13c0.07,2.78,0.05,6.15-0.06,10.11l1.47,4.55l0,0.1l4.06-0.41l13.14,0.41
		c-0.22,2.58-0.34,5.92-0.38,10.02l0.33,5.1l-0.29,5.11l1.17,5.08l-0.4,5.12l0.54,5.09l-0.29,5.12c0.42,3.12,0.66,5.75,0.71,7.9
		l0.04,1.56l0.01,0.52c0,0.21,1.61,0.48,4.81,0.82l3.44-0.08c0.83-0.02,2.82,0.18,5.96,0.58c2.9-0.76,5.94-1.33,9.13-1.68l0.39-5.22
		l-0.54-5.09c0.62-2.86,0.91-5.27,0.87-7.21l-0.05-2.19c-0.32-4.37-0.62-9.71-0.91-16.03l0.29-5.11c-0.06-2.57-0.46-6-1.19-10.29
		l2.6-0.17l5-0.12l5.83-0.46l4.08,0.63c0.28-0.01,0.43-2.13,0.47-6.37l-0.13-9.48l-0.41-4.16c0-0.07-1.71-0.34-5.13-0.81l-4.27,0.21
		l-5.43-0.49L186.58,4.13z"/>
</g>
</svg>
