<?xml version="1.0" encoding="utf-8"?>
<!-- Generator: Adobe Illustrator 23.0.2, SVG Export Plug-In . SVG Version: 6.00 Build 0)  -->
<svg version="1.1" id="Layer_1" xmlns="http://www.w3.org/2000/svg" xmlns:xlink="http://www.w3.org/1999/xlink" x="0px" y="0px"
	 viewBox="0 0 579.18 88.46" style="enable-background:new 0 0 579.18 88.46;" xml:space="preserve">
<style type="text/css">
	.st0{clip-path:url(#SVGID_2_);fill:#F3BC00;}
</style>
<g>
	<defs>
		<rect id="SVGID_1_" y="0" width="579.18" height="88.46"/>
	</defs>
	<clipPath id="SVGID_2_">
		<use xlink:href="#SVGID_1_"  style="overflow:visible;"/>
	</clipPath>
	<path class="st0" d="M547.64,53.52c-0.63,0.01-2.1,0.78-4.43,2.3c-0.35,0.08-1.15,1.31-2.41,3.71c-0.33,0.57-0.95,2.46-1.84,5.67
		l1.15,4.56c0.01,0.21,0.87,1.37,2.59,3.48c0.57,0.75,1.81,1.59,3.71,2.51c0.01,0.42,1.93,0.96,5.77,1.63l4.88-0.64l4.22-2.4
		c0.28-0.01,1.15-1.35,2.61-4.03c0.35-0.01,0.58-1.92,0.69-5.75l-0.94-4.25c-0.01-0.35-0.88-1.92-2.62-4.73l-3.7-2.1
		c-0.01-0.28-1.89-0.51-5.65-0.7L547.64,53.52z M538.25,2.05c-2.49,0.62-3.9,1.17-4.23,1.67c-1.71,1.08-3.99,3.16-6.83,6.21
		c-0.2,0.28-1.52,3.3-3.95,9.06c-0.35,0.01-0.48,1.78-0.39,5.32l0.02,0.94c0.01,0.21,1.88,0.34,5.64,0.38
		c8.44,1.46,13.78,2.17,16,2.11c0.32-1.12,0.62-3.11,0.9-5.96l5.36-2.63l4.27,4.27l-3.13,4.25c-1.37,0.87-2.29,1.55-2.76,2.05
		c-1.91,1.37-3.57,3.08-4.98,5.13c-0.75,0.58-1.55,2.09-2.39,4.54c-0.42,0.01-0.81,2.24-1.19,6.7l0.07,3.02l-0.1,0.11
		c2.44,0.29,7.93,0.33,16.47,0.12c3.88-0.44,5.82-0.73,5.82-0.87l-0.05-2.19l-0.11-0.1l2.89-5.39c0-0.14,1.44-0.73,4.34-1.77
		c0.35-0.01,1.78-1.15,4.29-3.44c2.15-3.11,3.61-5.78,4.39-8.03c0.47-0.5,0.67-2.62,0.57-6.37c-0.51-3.6-1.02-6.3-1.55-8.09
		c-0.31-1.38-1.08-2.96-2.3-4.74c-0.09-0.62-1.58-2.11-4.49-4.48c-2.95-1.32-6.21-2.42-9.77-3.31C553.47,0.53,548.25,0.35,545.4,0
		L538.25,2.05z M478.8,4.13l-0.83,0.02l-4.48,0.01l-4.15,0.83c-0.56,2.79-0.79,6.24-0.69,10.34l0.56,5.93
		c0.04,1.81-0.12,6.6-0.48,14.4l0.44,5.2l0.02,5l0.64,4.99c-0.37,4.8-0.51,9.18-0.41,13.14l0,0.1c0.08,3.4,0.35,7.32,0.81,11.76
		c0,0.14,1.3,0.46,3.88,0.95c0.01,0.28,3.9,0.46,11.69,0.55l6.55-0.58l2.4-0.06l6.45-0.37l15.01-0.05l4.66-1.16
		c0.14-0.07,0.55-1.72,1.23-4.93c-0.57-3.39-0.86-5.4-0.88-6.02l-0.08-3.23c-0.05-2.15-0.21-4.13-0.46-5.93l-9.25,1.16l-4.7-0.3
		l-4.68,0.32c-2.79-0.42-6.02-0.58-9.7-0.49l-0.1,0l-0.16-6.67c3.55,0.4,7,0.56,10.33,0.48l4.99-0.64c1.53,0.1,3.79,0.12,6.78,0.04
		l2.08-0.05l0.73-0.12c0.21,0,0.62-1.58,1.24-4.72l-0.25-1.87c-0.75-5.05-1.16-9.07-1.23-12.06l0-0.1l-0.11-0.1l-3.02,0.07
		l-0.42,0.01l-6.35,0.36l-9.59,0.03l-4.58,0.11l-0.31,0.11l-0.36-6.04c4.01-0.72,7.51-1.12,10.5-1.19
		c3.05-0.07,6.57,0.12,10.54,0.58l4.68-0.32c0.14,0,0.2-0.18,0.2-0.53l1.01-14.3l-1.16-4.66l-4.72-1.03l-4.98,0.75l-9.81-0.59
		l-4.99,0.54l-4.8-0.3C485.08,3.84,481.86,4.05,478.8,4.13 M430.52,48.67l4.71,0.93l2.49,3.79c-0.13,0.42-0.66,1.51-1.59,3.27
		c0.01,0.35-0.61,0.68-1.85,0.98c-1.24,0.52-4.18,0.83-8.84,0.94l-0.83,0.13l-0.64-4.78l0.4-4.81l0-0.1L430.52,48.67z M429.7,23.99
		c0.21,0.13,1.5,0.38,3.88,0.74c0.21-0.01,0.93,1.12,2.17,3.39c0.01,0.21-0.49,1.33-1.48,3.37c0,0.14-1.41,0.59-4.24,1.35
		l-6.04,0.36l-0.63-4.36l0.41-4.39L429.7,23.99z M418.72,5.28c-9.17,0.22-15.06,0.68-17.69,1.37c-0.43,2.24-0.66,5.61-0.69,10.13
		l0.54,4.99c-0.33,3.41-0.42,8.35-0.26,14.81c0.13,5.21,0.47,12.18,1.03,20.92l-0.08,5.21c0.16,3.61,0.32,6,0.49,7.18
		c0.48,5.41,0.79,8.11,0.93,8.11c2.01-0.05,5.15,0.15,9.4,0.6l11.99,0.23c2.97-0.63,6.12-1.16,9.45-1.59
		c8.8-0.77,13.21-1.29,13.2-1.57c1.25-0.03,3.52-0.85,6.82-2.46c0.28-0.07,1.47-1.11,3.57-3.11c0.27-0.28,1.24-1.66,2.92-4.14
		c0.2-0.42,0.68-1.86,1.46-4.31c0.35-0.01,0.5-3.63,0.47-10.85l-1.76-3.71c-0.01-0.28-1.11-1.43-3.32-3.46
		c-2.68-1.53-5.24-2.75-7.7-3.67c-0.77-0.12-1.15-0.35-1.16-0.7c0.2-0.21,1.51-0.77,3.92-1.66c0.28-0.01,1.4-0.97,3.37-2.9
		c0.62-0.36,1.45-1.91,2.49-4.65c0.28-0.01,0.51-2.03,0.69-6.06l-0.17-2.5l-0.05-2.19c-0.01-0.28-0.16-0.76-0.45-1.45
		c-0.76-2.62-1.28-3.93-1.55-3.92c-1.87-2.53-3.36-3.98-4.48-4.37c-1.63-1.14-3.7-2.13-6.22-2.97c-0.01-0.28-2.03-0.58-6.07-0.89
		l-3.44,0.08l-11.27-0.77l-2.29,0.06L418.72,5.28z M361.29,7.21l-5.01-0.3l-4.99,0.54l-0.1,0l-0.11-0.1l-9.59-0.18l-4.56,1.15
		c-0.21,0-0.52,1.72-0.92,5.13c0.07,2.78,0.05,6.15-0.07,10.11l1.47,4.55l0,0.11l4.05-0.41l13.14,0.41
		c-0.21,2.58-0.34,5.92-0.38,10.02l0.33,5.1l-0.29,5.11l1.17,5.08l-0.4,5.12l0.54,5.09l-0.29,5.12c0.42,3.12,0.66,5.75,0.71,7.9
		l0.04,1.56l0.01,0.52c0.01,0.21,1.61,0.48,4.82,0.82l3.44-0.08c0.83-0.02,2.82,0.18,5.96,0.59c2.9-0.76,5.94-1.33,9.13-1.68
		l0.39-5.22l-0.54-5.09c0.62-2.86,0.91-5.27,0.87-7.21l-0.05-2.19c-0.32-4.37-0.62-9.71-0.91-16.03l0.29-5.11
		c-0.06-2.57-0.46-6-1.19-10.29l2.6-0.17l5-0.12l5.83-0.46l4.08,0.63c0.28-0.01,0.43-2.13,0.47-6.37l-0.13-9.48l-0.41-4.16
		c0-0.07-1.71-0.34-5.13-0.81l-4.27,0.21l-5.43-0.49L361.29,7.21z M287.54,25.79l-5.01-0.3c-6.4,2.52-10.97,4.58-13.71,6.17
		l-2.61,4.02c-0.83,2.87-1.58,6.22-2.25,10.06l0.49,2.91c0.25,1.66,0.91,3.35,2,5.06c0.02,0.63,1.34,2.19,3.97,4.7l8.32,3.34
		c0.01,0.35,1.89,0.68,5.65,1.01c0.28-0.01,1.48,0.94,3.61,2.83l-2.86,2.57l-4.07-0.11c-0.49,0.01-1.99-0.58-4.52-1.77
		c-0.14,0-1.24-1.15-3.32-3.46l-0.1,0l-0.91,1.07c-1.14,1.9-4.61,6.09-10.43,12.55l3.63,3.35c0.28,0.27,2.01,1.13,5.17,2.58
		c3.98,0.67,7.61,1.34,10.89,2.03l5.61-0.76l5.11,0.08l5.18-1.27c2.96-0.91,5.48-2.01,7.53-3.31c0.9-0.3,2.01-1.47,3.35-3.52
		c0.82-0.78,1.31-1.84,1.49-3.16c0.52-1.61,0.83-4.4,0.94-8.36l-0.94-4.25c-0.01-0.49-0.75-2.13-2.21-4.95
		c0-0.14-1.32-1.39-3.95-3.76c-4.22-1.91-6.95-2.92-8.2-3.03c-4.06-1.08-7-2.16-8.83-3.22c0.2-0.35,1.36-1.28,3.48-2.8l3.67,0.95
		c0.76-0.02,2.91,0.97,6.43,2.97c0.21-0.01,0.31-0.08,0.31-0.22c2.49-3.33,6.06-7.86,10.72-13.6l0-0.1
		c-2.76-1.95-5.44-3.58-8.04-4.91c-3.01-0.97-6.54-1.65-10.58-2.03L287.54,25.79z M233.42,29.2l0.11,0.1l0.33,4.99l-0.08,5.42
		l0.33,4.99l0.11,0.41l-0.81,5.23l0.65,5.51l-0.08,0.94l0.05,2.19L234,61.19l0.76,5.3l-0.29,5.32l0.55,5.41l-0.5,5.12
		c4.95,0.64,8.74,0.93,11.38,0.87l1.88-0.05c4.72-0.11,8.19-0.48,10.4-1.09c-0.07-2.71,0.05-6.32,0.36-10.85l-0.02-0.83l-0.21-4.37
		l0.16-6.26c-0.11-4.58-0.26-7.88-0.45-9.89l0.15-6.78l-0.03-1.35c-0.58-6.86-0.9-11.27-0.95-13.21l-0.1,0
		c-3.34-0.2-6.44-0.47-9.3-0.81C244.5,27.78,239.72,28.28,233.42,29.2 M242.53,0.94c-1.38,0.31-3.24,1.26-5.56,2.85
		c-0.48,0.29-1.52,1.57-3.14,3.83c-0.28,0.01-0.51,1.72-0.71,5.12l0.42,4.26c0.01,0.56,0.84,1.89,2.5,4
		c0.01,0.35,1.31,1.18,3.92,2.51c0.01,0.21,1.85,0.58,5.55,1.11l4.57-0.74c0.14,0,1.2-0.79,3.17-2.37c0.88-0.71,1.83-1.99,2.82-3.82
		c0.49-0.01,0.79-1.83,0.91-5.44l-0.31-4.16c-0.01-0.56-0.74-1.72-2.17-3.49c-0.3-0.76-1.36-1.56-3.19-2.42
		c-0.85-0.67-2.99-1.32-6.4-1.93L242.53,0.94z M170.32,18.96c-0.4,3.42-0.55,7.27-0.45,11.58l-0.09,0.63
		c-0.56,0.01-1.64-0.17-3.24-0.55l-3.63,0.71c-0.14,0-0.41,1.78-0.81,5.34l1.2,10.81c0,0.14,1.22,0.35,3.66,0.64l3.64-0.4l0.1,0
		l0.1-0.11c0.06,2.5,0,5.77-0.18,9.8l0.26,2.29c0.29,8.96,0.61,13.43,0.95,13.42c0.48,2.42,1.07,3.9,1.78,4.44
		c0.37,1.1,2.02,3.01,4.93,5.72l4.1,1.26c3.28,0.47,8.05,0.91,14.31,1.32l4.14-1.04c2.48-1.03,3.71-1.62,3.71-1.76l-0.11-4.58
		c-0.01-0.56,0.25-2.58,0.79-6.06l-1.28-5.49l-0.1,0l-3.93,1.24l-4.94-1.65c-0.7-3.11-1.34-6.39-1.91-9.86l0.08-5.32l-0.21-4.37
		l3.02-0.07l8.44-0.1l0.1,0c0.21-2.64,0.27-6.12,0.16-10.43l-0.46-5.83l-0.01-0.21c-0.01-0.21-1.92-0.37-5.74-0.49l-5.82,0.66
		l0.48-5.95l-0.66-5.72c0-0.21-1.71-0.41-5.12-0.6l-6.56,0.16c-1.32,0.03-3.58-0.16-6.79-0.56L170.32,18.96z M140.12,63.06
		c-0.23,1.81-0.83,4.36-1.79,7.65l-5.58,2.01l-1.36-0.07l-2.4,0.06c-0.14-0.13-0.69-1.34-1.65-3.61l1.98-4.22l4.55-1.57l4.9,0.19
		L140.12,63.06z M125.33,29.55c-0.69,0.02-2.45,0.65-5.27,1.9c-2.8,1.94-5.13,3.36-6.98,4.24c-0.76,0.02-2.29,1.38-4.59,4.07l0,0.1
		l5.56,5.91c2.07,2.17,4.16,3.96,6.28,5.37l0.31-0.01l4.92-3.25l6.42-1.62l4.6,0.62c0.14,0,0.62,1.41,1.46,4.24
		c-1.94,0.12-2.91,0.21-2.91,0.28c-5.35,0.27-8.57,0.56-9.67,0.86c-1.6,0.04-4.29,0.97-8.06,2.8c-2.81,1.6-4.25,2.54-4.31,2.82
		c-2.71,2.85-4.7,5.29-5.97,7.34l0.44,5.31l0.12,4.69c0.01,0.42,0.38,1.45,1.12,3.1c0.01,0.56,1,2.34,2.94,5.35
		c0.36,0.55,1,0.95,1.91,1.21c1.83,0.86,4.31,1.6,7.45,2.21l10.54,0.37l4.54-1.78c0.28-0.01,1.35-1.53,3.22-4.56l0.1,0
		c0.28-0.01,0.52,1.48,0.74,4.46l5.13,0.92l5.3-0.65l5.64,0.49l5.28-1.48c0.14,0,0.28-1.47,0.41-4.39c-0.21-2.98-0.35-5.65-0.4-8.02
		c-0.04-1.8,0.04-5.53,0.25-11.16l-1.16-4.66l-0.02-5l-1.47-9.03c-0.01-0.56-0.81-1.92-2.39-4.11c-0.94-1.44-2.97-3.4-6.09-5.9
		c-1.21-1.15-2.37-1.78-3.49-1.9c-2.03-0.71-5.76-1.01-11.17-0.87l-1.15,0.03l-5.54-0.7L125.33,29.55z M9.87,16.11l0-0.1l-5.11-0.29
		L0,17.29c0.05,2.08,0.38,4.4,1,6.96c0.03,1.25,0.77,3.21,2.23,5.89c0.28-0.01,0.96,2.34,2.05,7.04c0.48,2.63,1.27,5.15,2.37,7.55
		c0.71,3.67,1.18,5.74,1.4,6.22c0.96,2.55,2.06,6.17,3.29,10.86c0.03,1.25,0.85,3.42,2.45,6.51c0.85,3.66,1.69,6.63,2.51,8.9
		c1.15,4.28,2.3,7.45,3.46,9.5c0.01,0.28,1.06,0.64,3.15,1.07c0.01,0.35,2.24,0.57,6.69,0.67c3.12-0.42,6.27-0.67,9.47-0.75
		c3.18-0.7,4.77-1.19,4.76-1.47c0.54-3.49,1.31-6.18,2.3-8.08c0.47-0.64,0.88-2.56,1.21-5.76c0.06-0.56,0.98-3.95,2.77-10.18
		c0.84-5.23,1.9-10.5,3.16-15.82l0.1,0c0.77,3.11,1.53,5.94,2.29,8.49l5.4,16.23c2.28,8.21,3.45,13.19,3.49,14.92
		c5.43,0.42,10.19,0.58,14.29,0.48l3.23-0.08c1.46-0.03,3.71-0.44,6.75-1.21c0.21,0,0.74-1.16,1.58-3.48
		c1.51-3.65,2.28-6.14,2.32-7.46c-0.04-1.67,0.63-3.94,2.02-6.82l2.36-9.96c1.18-2.88,2.01-5.85,2.49-8.92
		c1.03-3.5,1.69-6.22,1.99-8.18c-0.03-1.11,0.45-2.89,1.43-5.35c0.33-0.49,0.57-2.31,0.7-5.44c-0.02-0.9,0.53-2.51,1.65-4.83
		c1.02-3.64,1.5-6.99,1.42-10.04l0-0.1l-0.11,0l-9.62-1.43c-2.49,0.27-4.44,0.42-5.83,0.46l-3.65,0.09c-3.67,0.65-5.5,1-5.5,1.07
		l0,4.17l0.01,0.42c0.01,0.49-0.34,1.82-1.05,3.99c-0.25,1.12-0.68,4.85-1.29,11.18c-0.96,3.29-1.62,6.08-1.98,8.39
		c-0.64,5.02-1.41,9.03-2.31,12.04l-1.27-4.87c-1.22-7.33-2.21-12.28-2.97-14.83c-1.33-3.3-2.24-6.51-2.74-9.63
		c-2.01-5.65-3.03-8.99-3.06-10.04c-0.01-0.28-0.74-0.43-2.2-0.47c-6.05-0.2-10.33-0.55-12.85-1.04c-4.14,1-7.33,1.53-9.55,1.59
		l-1.76,4.84c-0.54,3.56-0.97,5.83-1.29,6.81c-1.39,5.66-2.06,9.47-2.01,11.41c0.03,1.25-0.4,3.41-1.3,6.49
		c-0.7,2.8-1.13,6.21-1.31,10.25l-0.42,0.01l0-0.1c-0.65-3.67-1.49-7.09-2.54-10.26c-1.85-4.82-2.83-9.31-2.93-13.48
		c-0.02-0.69-0.58-2.35-1.68-4.96l-1.19-10.5c-2.73-0.63-6.18-1.03-10.35-1.21L9.87,16.11z"/>
</g>
</svg>
